<svg width="511.99992" height="511" xmlns="http://www.w3.org/2000/svg">

 <g>
  <title>background</title>
  <rect fill="none" id="canvas_background" height="402" width="582" y="-1" x="-1"/>
 </g>
 <g>
  <title>Layer 1</title>
  <path fill="#126e82" id="svg_1" d="m509.914062,214.859375l-85.695312,-111.320313c-3.171875,-4.117187 -8.957031,-5.132812 -13.34375,-2.34375l-55.328125,35.1875l-72.160156,0c-0.933594,0 -1.863281,0.199219 -2.761719,0.460938l-55.949219,16.105469l-58.054687,-15.878907l-56.410156,-35.875c-4.3125,-2.742187 -9.992188,-1.8125 -13.199219,2.164063l-94.785157,117.40625c-3.40625,4.21875 -2.84375,10.378906 1.265626,13.914063l49.679687,42.753906l44.570313,60.0625c-13.035157,13.886718 -12.78125,35.789062 0.78125,49.355468c6.011718,6.007813 13.65625,9.402344 21.519531,10.191407c-0.273438,1.78125 -0.414063,3.589843 -0.414063,5.425781c0,9.476562 3.691406,18.386719 10.390625,25.085938c6.703125,6.703124 15.613281,10.394531 25.089844,10.394531c0.128906,0 0.253906,-0.007813 0.378906,-0.011719c-0.003906,0.242188 -0.015625,0.480469 -0.015625,0.722656c0,9.476563 3.691406,18.386719 10.390625,25.089844c6.703125,6.699219 15.613281,10.390625 25.089844,10.390625c1.871094,0 3.722656,-0.152344 5.539063,-0.433594c0.769531,7.890625 4.171874,15.570313 10.203124,21.601563c6.914063,6.917968 16,10.375 25.085938,10.375s18.171875,-3.457032 25.089844,-10.375l5.425781,-5.425782l2.277344,1.835938c6.859375,6.644531 15.765625,9.964844 24.671875,9.964844c9.085937,0 18.171875,-3.457032 25.085937,-10.375c7.058594,-7.058594 10.515625,-16.375 10.371094,-25.644532c9.265625,0.140626 18.585937,-3.3125 25.644531,-10.367187c7.050782,-7.054687 10.507813,-16.363281 10.371094,-25.628906c9.652344,0.152343 18.808594,-3.554688 25.640625,-10.386719c7.058594,-7.058594 10.515625,-16.375 10.371094,-25.644531c9.273437,0.140625 18.585937,-3.3125 25.644531,-10.371094c12.046875,-12.046875 13.597656,-30.667969 4.664062,-44.414063l32.542969,-68.15625l48.925781,-42.101562c4.042969,-3.480469 4.660157,-9.511719 1.40625,-13.734375zm-402.914062,-91.910156l40.5625,25.792969l-88.238281,107.5l-35.359375,-30.433594l83.035156,-102.859375zm5.722656,227.921875l12.242188,-12.242188c0.371094,-0.371094 0.761718,-0.722656 1.160156,-1.050781c2.394531,-1.953125 5.292969,-3.117187 8.363281,-3.394531c0.085938,-0.007813 0.175781,-0.007813 0.261719,-0.011719c0.4375,-0.035156 0.875,-0.058594 1.316406,-0.054687c4.195313,0.058593 8.09375,1.773437 10.984375,4.824218c5.671875,5.996094 5.367188,15.792969 -0.679687,21.839844l-11.871094,11.871094c-6.003906,6.003906 -15.773438,6.003906 -21.777344,0c-6.003906,-6.007813 -6.003906,-15.777344 0,-21.78125zm31.496094,62.484375c-2.910156,-2.90625 -4.511719,-6.773438 -4.511719,-10.886719s1.601563,-7.980469 4.511719,-10.890625l23.738281,-23.738281c4.546875,-4.546875 11.695313,-5.792969 17.507813,-3.023438c5.992187,2.855469 9.363281,9.359375 8.484375,15.902344c-0.46875,3.492188 -2.09375,6.78125 -4.585938,9.277344l-23.363281,23.359375c-2.910156,2.910156 -6.777344,4.511719 -10.890625,4.511719s-7.980469,-1.601563 -10.890625,-4.511719zm35.84375,36.191406c-2.910156,-2.90625 -4.511719,-6.773437 -4.511719,-10.886719c0,-4.113281 1.601563,-7.980468 4.511719,-10.890625l23.734375,-23.738281c4.863281,-4.859375 12.664063,-5.90625 18.617187,-2.441406c5.4375,3.164062 8.285157,9.375 7.351563,15.5625c-0.511719,3.402344 -2.128906,6.601562 -4.5625,9.035156l-23.359375,23.359375c-2.910156,2.910156 -6.777344,4.511719 -10.890625,4.511719s-7.980469,-1.601563 -10.890625,-4.511719zm40.828125,31.5625c-6.003906,-6.003906 -6.003906,-15.773437 0,-21.777344l12.242187,-12.242187c0.371094,-0.371094 0.757813,-0.71875 1.15625,-1.046875c0.011719,-0.007813 0.019532,-0.015625 0.027344,-0.023438c1.992188,-1.617187 4.332032,-2.699219 6.828125,-3.171875c0.058594,-0.007812 0.117188,-0.015625 0.175781,-0.023437c0.429688,-0.078125 0.867188,-0.140625 1.304688,-0.179688c0.175781,-0.015625 0.351562,-0.015625 0.53125,-0.027343c0.359375,-0.019532 0.714844,-0.042969 1.078125,-0.039063c4.191406,0.058594 8.09375,1.769531 10.984375,4.824219c0.355469,0.375 0.6875,0.765625 0.992188,1.167968c4.617187,6.035157 3.996093,15 -1.734376,20.734376l-11.808593,11.808593c-6.003907,6.003907 -15.773438,6 -21.777344,-0.003906zm187.285156,-112.042969c-6.003906,6.007813 -15.773437,6.003906 -21.777343,0c-0.21875,-0.21875 -0.449219,-0.421875 -0.683594,-0.613281l-64.554688,-65.234375c-3.902344,-3.941406 -10.257812,-3.972656 -14.199218,-0.070312c-3.941407,3.898437 -3.972657,10.253906 -0.074219,14.195312l65.253906,65.933594c0.007813,0.007812 0.015625,0.015625 0.023437,0.023437c6.003907,6.003907 6.003907,15.777344 0,21.78125c-2.910156,2.910157 -6.777343,4.511719 -10.890624,4.511719c-4.117188,0 -7.984376,-1.601562 -10.890626,-4.511719l-43.652343,-44.105469c-3.898438,-3.941406 -10.253907,-3.972656 -14.195313,-0.074218c-3.941406,3.902344 -3.972656,10.257812 -0.074218,14.199218l42.984374,43.429688c0.21875,0.273438 0.453126,0.535156 0.703126,0.785156c6.003906,6.003906 6.003906,15.777344 0,21.78125c-6.007813,6.003906 -15.78125,6 -21.785157,-0.003906l-23.824219,-24.074219c-3.902343,-3.941406 -10.257812,-3.976562 -14.199218,-0.074219c-3.941406,3.898438 -3.972656,10.253907 -0.074219,14.195313l23.160156,23.398437c0.21875,0.273438 0.453125,0.539063 0.707031,0.789063c6.003907,6.003906 6.003907,15.777344 0,21.78125c-6.003906,6.007813 -15.773437,6.003906 -21.777343,0c-0.691407,-0.691406 -1.503907,-1.222656 -2.277344,-1.816406c-0.65625,-0.5 -0.828125,-0.847657 -0.5,-1.644531c0.332031,-0.808594 0.828125,-1.539063 1.160156,-2.351563c0.367188,-0.90625 0.664063,-1.839844 0.953125,-2.777344c1.539063,-4.960937 1.992188,-10.296875 1.300782,-15.445312c-1.328126,-9.878907 -6.761719,-18.792969 -14.996094,-24.433594c-4.449219,-3.042969 -9.597656,-5.039063 -14.933594,-5.789063c2.585938,-11.40625 -0.519531,-23.773437 -8.597656,-32.308593c-6.648438,-7.023438 -15.628906,-10.964844 -25.289063,-11.097657c-0.351562,-0.003906 -0.703125,-0.003906 -1.058593,0c0.214843,-9.21875 -3.136719,-18.378906 -9.492188,-25.09375c-6.652344,-7.023437 -15.632812,-10.964843 -25.289062,-11.097656c-2.871094,-0.039062 -5.769532,0.265625 -8.566407,0.910156c-1.195312,-8.316406 -5.386719,-16.011718 -11.734375,-21.515624c-6.308594,-5.460938 -14.242187,-8.492188 -22.691406,-8.609376c-8.894531,-0.128906 -17.632812,3.152344 -24.238281,9.117188l-38.808594,-52.292969l92.84375,-113.109375l29.589844,8.09375l-38.644531,68.191406c-4.671876,8.246094 -5.851563,17.816407 -3.324219,26.949219c2.527343,9.136719 8.457031,16.738281 16.703125,21.410157c0.515625,0.292968 1.035156,0.570312 1.5625,0.835937c0.039062,0.019531 0.078125,0.039063 0.121094,0.058594c1.386718,0.691406 2.8125,1.285156 4.257812,1.785156c6.730469,2.332031 14,2.585937 21.011719,0.648437c9.132812,-2.527343 16.734375,-8.460937 21.40625,-16.703124l25.113281,-44.316407l44.839844,3.179688l119.402344,119.398437c6,6.007813 6,15.777344 -0.003907,21.78125zm4.160157,-46.019531l-112.011719,-112.007813c-0.210938,-0.214843 -0.433594,-0.417968 -0.664063,-0.609374c-1.613281,-1.34375 -3.613281,-2.15625 -5.722656,-2.304688l-54.902344,-3.894531c-3.796875,-0.261719 -7.570312,1.757812 -9.445312,5.066406l-28.234375,49.828125c-2.027344,3.578125 -5.328125,6.152344 -9.292969,7.25c-3.960938,1.097656 -8.117188,0.582031 -11.699219,-1.445312c-3.578125,-2.027344 -6.152343,-5.328126 -7.25,-9.292969c-1.097656,-3.964844 -0.585937,-8.121094 1.445313,-11.699219l37.691406,-66.519531l15.273438,-4.394531c0.101562,-0.03125 0.199218,-0.070313 0.300781,-0.101563l57.003906,-16.460937l68.875,0l85.984375,109.304687l-27.351562,57.28125zm40.503906,-73.039063l-79.515625,-101.136718l40.582031,-25.808594l74.300781,96.511719l-35.367187,30.433593zm0,0"/>
  <path fill="#126e82" id="svg_2" d="m310.183594,117.53125c2.570312,0 5.140625,-0.980469 7.101562,-2.941406l68.578125,-68.578125c3.921875,-3.921875 3.921875,-10.277344 0,-14.199219s-10.277343,-3.921875 -14.199219,0l-68.578124,68.578125c-3.921876,3.921875 -3.921876,10.277344 0,14.199219c1.960937,1.960937 4.53125,2.941406 7.097656,2.941406zm0,0"/>
  <path fill="#126e82" id="svg_3" d="m194.714844,114.589844c1.960937,1.960937 4.53125,2.941406 7.101562,2.941406c2.566406,0 5.136719,-0.980469 7.097656,-2.941406c3.921876,-3.921875 3.921876,-10.277344 0,-14.199219l-68.578124,-68.578125c-3.921876,-3.921875 -10.277344,-3.921875 -14.199219,0s-3.921875,10.277344 0,14.199219l68.578125,68.578125zm0,0"/>
  <path fill="#126e82" id="svg_4" d="m256,117.53125c5.542969,0 10.039062,-4.496094 10.039062,-10.039062l0,-56.753907c0,-5.542969 -4.496093,-10.039062 -10.039062,-10.039062s-10.039062,4.496093 -10.039062,10.039062l0,56.753907c0,5.542968 4.496093,10.039062 10.039062,10.039062zm0,0"/>
  <path fill="#126e82" id="svg_5" d="m246.734375,14.351562c1.59375,3.863282 5.566406,6.398438 9.757813,6.179688c4.140624,-0.214844 7.777343,-3.011719 9.058593,-6.953125c1.285157,-3.972656 -0.113281,-8.5 -3.441406,-11.03125c-3.394531,-2.585938 -8.128906,-2.730469 -11.679687,-0.382813c-3.960938,2.617188 -5.496094,7.828126 -3.695313,12.1875zm0,0"/>
 </g>
</svg>