<svg width="512" height="512" xmlns="http://www.w3.org/2000/svg">

 <g>
  <title>background</title>
  <rect fill="none" id="canvas_background" height="402" width="582" y="-1" x="-1"/>
 </g>
 <g>
  <title>Layer 1</title>
  <path fill="#126e82" id="svg_3" d="m451.72,237.26c-17.422,-8.71 -50.087,-8.811 -51.469,-8.811c-4.142,0 -7.5,3.358 -7.5,7.5c0,4.142 3.358,7.5 7.5,7.5c8.429,0.001 32.902,1.299 44.761,7.228c1.077,0.539 2.221,0.793 3.348,0.793c2.751,0 5.4,-1.52 6.714,-4.147c1.853,-3.705 0.351,-8.21 -3.354,-10.063z"/>
  <path fill="#126e82" id="svg_6" d="m489.112,344.041l-30.975,-8.85c-1.337,-0.382 -2.271,-1.62 -2.271,-3.011l0,-10.339c2.52,-1.746 4.924,-3.7 7.171,-5.881c10.89,-10.568 16.887,-24.743 16.887,-39.915l0,-14.267l2.995,-5.989c3.287,-6.575 5.024,-13.936 5.024,-21.286l0,-38.65c0,-4.142 -3.358,-7.5 -7.5,-7.5l-72.173,0c-26.244,0 -47.596,21.352 -47.596,47.596l0,0.447c0,6.112 1.445,12.233 4.178,17.699l3.841,7.682l0,12.25c0,19.414 9.567,36.833 24.058,47.315l0.002,10.836c0,1.671 0,2.363 -6.193,4.133l-15.114,4.318l-43.721,-15.898c0.157,-2.063 -0.539,-4.161 -2.044,-5.742l-13.971,-14.678l0,-24.64c1.477,-1.217 2.933,-2.467 4.344,-3.789c17.625,-16.52 27.733,-39.844 27.733,-63.991l0,-19.678c5.322,-11.581 8.019,-23.836 8.019,-36.457l0,-80.19c0,-4.142 -3.358,-7.5 -7.5,-7.5l-112.269,0c-39.51,0 -71.653,32.144 -71.653,71.653l0,16.039c0,12.621 2.697,24.876 8.019,36.457l0,16.931c0,28.036 12.466,53.294 32.077,69.946l0,25.22l-13.971,14.678c-1.505,1.581 -2.201,3.679 -2.044,5.742l-46.145,16.779c-3.344,1.216 -6.451,2.863 -9.272,4.858l-7.246,-3.623c21.57,-9.389 28.403,-22.594 28.731,-23.25c1.056,-2.111 1.056,-4.597 0,-6.708c-5.407,-10.814 -6.062,-30.635 -6.588,-46.561c-0.175,-5.302 -0.341,-10.311 -0.658,-14.771c-2.557,-35.974 -29.905,-63.103 -63.615,-63.103s-61.059,27.128 -63.615,63.103c-0.317,4.461 -0.483,9.47 -0.658,14.773c-0.526,15.925 -1.182,35.744 -6.588,46.558c-1.056,2.111 -1.056,4.597 0,6.708c0.328,0.656 7.147,13.834 28.76,23.234l-20.127,10.063c-10.76,5.384 -17.444,16.199 -17.444,28.228l0,55.409c0,4.142 3.358,7.5 7.5,7.5s7.5,-3.358 7.5,-7.5l0,-55.409c0,-6.312 3.507,-11.987 9.152,-14.81l25.063,-12.531l8.718,8.285c6.096,5.793 13.916,8.688 21.739,8.688c7.821,0 15.645,-2.897 21.739,-8.688l8.717,-8.284l8.172,4.086c-3.848,6.157 -6.032,13.377 -6.032,20.94l0,57.725c0,4.142 3.358,7.5 7.5,7.5c4.142,0 7.5,-3.358 7.5,-7.5l0,-57.725c0,-10.296 6.501,-19.578 16.178,-23.097l48.652,-17.691l20.253,30.381c2.589,3.884 6.738,6.375 11.383,6.835c0.518,0.051 1.033,0.076 1.547,0.076c4.098,0 8.023,-1.613 10.957,-4.546l12.356,-12.356l0,78.124c0,4.142 3.358,7.5 7.5,7.5c4.142,0 7.5,-3.358 7.5,-7.5l0,-78.124l12.356,12.356c2.933,2.934 6.858,4.547 10.957,4.547c0.513,0 1.029,-0.025 1.546,-0.076c4.646,-0.46 8.795,-2.951 11.384,-6.835l20.254,-30.38l48.651,17.691c9.676,3.519 16.178,12.801 16.178,23.097l0,57.725c0,4.142 3.358,7.5 7.5,7.5c4.142,0 7.5,-3.358 7.5,-7.5l0,-57.725c0,-10.428 -4.143,-20.208 -11.093,-27.441l1.853,-0.529c1.869,-0.534 4.419,-1.265 6.979,-2.52l19.149,19.149l0,69.066c0,4.142 3.358,7.5 7.5,7.5c4.142,0 7.5,-3.358 7.5,-7.5l0,-69.066l19.016,-19.016c1.011,0.514 2.073,0.948 3.191,1.267l30.976,8.85c7.07,2.02 12.009,8.567 12.009,15.921l0,62.044c0,4.142 3.358,7.5 7.5,7.5c4.142,0 7.5,-3.358 7.5,-7.5l0,-62.044c0,-14.018 -9.412,-26.497 -22.888,-30.348zm-440.997,-13.247c-14.029,-5.048 -21.066,-11.778 -24.07,-15.453c2.048,-5.354 3.376,-11.486 4.275,-17.959c4.136,9.917 11.063,18.383 19.795,24.423l0,8.989zm42.965,20.298c-6.397,6.078 -16.418,6.077 -22.813,-0.001l-6.975,-6.628c1.177,-2.205 1.824,-4.705 1.824,-7.324l0,-7.994c5.232,1.635 10.794,2.517 16.558,2.517c5.757,0 11.316,-0.886 16.557,-2.512l-0.001,7.988c0,2.62 0.646,5.121 1.824,7.327l-6.974,6.627zm-11.404,-34.43c-22.396,0 -40.615,-18.22 -40.615,-40.615c0,-4.142 -3.358,-7.5 -7.5,-7.5c-0.42,0 -0.83,0.043 -1.231,0.11c0.022,-0.645 0.043,-1.291 0.065,-1.93c0.167,-5.157 0.328,-10.028 0.625,-14.206c0.958,-13.476 6.343,-25.894 15.163,-34.968c8.899,-9.156 20.793,-14.198 33.491,-14.198s24.591,5.042 33.491,14.198c8.82,9.074 14.205,21.492 15.163,34.968c0.296,4.177 0.458,9.047 0.628,14.203c0.015,0.443 0.03,0.892 0.045,1.338c-8.16,-12.572 -20.762,-21.837 -37.045,-27.069c-15.043,-4.833 -27.981,-4.534 -28.527,-4.52c-1.964,0.055 -3.828,0.877 -5.191,2.291l-13.532,14.034c-2.875,2.982 -2.789,7.73 0.193,10.605s7.73,2.788 10.605,-0.193l11.26,-11.677c9.697,0.474 40.894,4.102 53.027,30.819c-3.053,19.688 -19.975,34.31 -40.115,34.31zm31.553,14.157l0.001,-8.945c8.725,-6.007 15.662,-14.457 19.801,-24.449c0.899,6.458 2.226,12.576 4.27,17.918c-2.987,3.64 -10.057,10.43 -24.072,15.476zm72.174,-121.674l0,-18.608c0,-1.129 -0.255,-2.244 -0.746,-3.261c-4.826,-9.994 -7.273,-20.598 -7.273,-31.518l0,-16.038c0,-31.239 25.415,-56.653 56.653,-56.653l104.769,0l0,72.692c0,10.92 -2.447,21.524 -7.273,31.518c-0.491,1.017 -0.746,2.132 -0.746,3.261l0,21.355c0,20.311 -8.165,39.15 -22.991,53.047c-1.851,1.734 -3.772,3.36 -5.758,4.875c-0.044,0.03 -0.086,0.063 -0.129,0.094c-13.889,10.545 -30.901,15.67 -48.667,14.519c-38.041,-2.463 -67.839,-35.531 -67.839,-75.283zm42.229,150.911c-0.052,0.052 -0.173,0.175 -0.418,0.149c-0.244,-0.024 -0.34,-0.167 -0.381,-0.229l-23.325,-34.988l7.506,-7.887l35.385,24.187l-18.767,18.768zm30.463,-28.943l-40.615,-27.762l0,-14c10.509,5.681 22.276,9.234 34.791,10.044c1.977,0.128 3.942,0.191 5.901,0.191c14.341,0 28.143,-3.428 40.538,-9.935l0,13.7l-40.615,27.762zm31.262,28.865c-0.041,0.062 -0.137,0.205 -0.381,0.229c-0.245,0.031 -0.365,-0.098 -0.418,-0.149l-18.767,-18.767l35.385,-24.188l7.507,7.887l-23.326,34.988zm136.951,-6.328l-17.02,-17.019c0.297,-1.349 0.465,-2.826 0.464,-4.455l-0.001,-3.165c4.723,1.55 9.701,2.47 14.852,2.624c0.578,0.018 1.151,0.026 1.727,0.026c5.692,0 11.248,-0.86 16.536,-2.501l0,3.02c0,1.496 0.188,2.962 0.542,4.371l-17.1,17.099zm28.283,-48.454c-7.949,7.714 -18.45,11.788 -29.537,11.446c-21.704,-0.651 -39.361,-19.768 -39.361,-42.613l0,-14.021c0,-1.165 -0.271,-2.313 -0.792,-3.354l-4.633,-9.266c-1.697,-3.395 -2.594,-7.195 -2.594,-10.991l0,-0.447c0,-17.974 14.623,-32.596 32.596,-32.596l64.673,0l0,31.15c0,5.034 -1.19,10.075 -3.441,14.578l-3.786,7.572c-0.521,1.042 -0.792,2.189 -0.792,3.354l0,16.038c0,11.08 -4.38,21.432 -12.333,29.15z"/>
  <path fill="#126e82" id="svg_9" d="m472.423,380.814c-4.142,0 -7.5,3.358 -7.5,7.5l0,48.115c0,4.142 3.358,7.5 7.5,7.5c4.142,0 7.5,-3.358 7.5,-7.5l0,-48.115c0,-4.141 -3.358,-7.5 -7.5,-7.5z"/>
  <path fill="#126e82" id="svg_12" d="m39.577,390.728c-4.142,0 -7.5,3.358 -7.5,7.5l0,38.201c0,4.142 3.358,7.5 7.5,7.5c4.142,0 7.5,-3.358 7.5,-7.5l0,-38.201c0,-4.141 -3.358,-7.5 -7.5,-7.5z"/>
  <path fill="#126e82" id="svg_15" d="m317.532,158.475c-28.366,-28.366 -87.715,-22.943 -111.917,-19.295c-7.623,1.149 -13.155,7.6 -13.155,15.339l0,17.278c0,4.142 3.358,7.5 7.5,7.5c4.142,0 7.5,-3.358 7.5,-7.5l0,-17.279c0,-0.255 0.168,-0.473 0.392,-0.507c9.667,-1.457 28.85,-3.705 48.725,-2.38c23.388,1.557 40.328,7.428 50.349,17.45c2.929,2.929 7.678,2.929 10.606,0c2.929,-2.929 2.929,-7.678 0,-10.606z"/>
  <path fill="#126e82" id="svg_18" d="m167.884,396.853c-4.142,0 -7.5,3.358 -7.5,7.5l0,32.077c0,4.142 3.358,7.5 7.5,7.5c4.142,0 7.5,-3.358 7.5,-7.5l0,-32.077c0,-4.141 -3.358,-7.5 -7.5,-7.5z"/>
  <path fill="#126e82" id="svg_21" d="m344.306,396.853c-4.142,0 -7.5,3.358 -7.5,7.5l0,32.077c0,4.142 3.358,7.5 7.5,7.5c4.142,0 7.5,-3.358 7.5,-7.5l0,-32.077c0,-4.141 -3.358,-7.5 -7.5,-7.5z"/>
 </g>
</svg>